# xmcd
#
# Track frame offsets:
# 150
# 19191
# 41668
# 54729
# 68572
# 85536
# 100357
# 103724
# 126458
# 147074
# 167978
#
# Disc length: 2608 seconds
#
# Revision: 0
# Processed by: cddbd v1.5.2PL0 Copyright (c) Steve Scherf et al.
# Submitted via: Axialis_AX_CDPlayer 2.6
#
DISCID=950a2e0b
DTITLE=Kathy Mattea - Coal
DYEAR=1900
DGENRE=
TTITLE0=The L&N Don't Stop Here Anymore
TTITLE1=Blue Diamond Mines
TTITLE2=Red-Winged Black Bird
TTITLE3=Lawrence Jones
TTITLE4=Green Rolling Hills
TTITLE5=Coal Tattoo
TTITLE6=Sally In The Garden
TTITLE7=You'll Never Leave Harlan Alive
TTITLE8=Dark As A Dungeon
TTITLE9=Coming Of The Roads
TTITLE10=Black Lung
EXTD=www.mattea.com
EXTT0=
EXTT1=
EXTT2=
EXTT3=
EXTT4=
EXTT5=
EXTT6=
EXTT7=
EXTT8=
EXTT9=
EXTT10=
PLAYORDER=
